<?xml version="1.0" encoding="UTF-8" standalone="no"?>
<!-- Created with Inkscape (http://www.inkscape.org/) -->

<svg
   xmlns:dc="http://purl.org/dc/elements/1.1/"
   xmlns:cc="http://creativecommons.org/ns#"
   xmlns:rdf="http://www.w3.org/1999/02/22-rdf-syntax-ns#"
   xmlns:svg="http://www.w3.org/2000/svg"
   xmlns="http://www.w3.org/2000/svg"
   xmlns:sodipodi="http://sodipodi.sourceforge.net/DTD/sodipodi-0.dtd"
   xmlns:inkscape="http://www.inkscape.org/namespaces/inkscape"
   width="50"
   height="50"
   viewBox="0 0 50.000001 50.000001"
   id="svg2"
   version="1.1"
   inkscape:version="0.91 r13725"
   sodipodi:docname="spiral.svg">
  <defs
     id="defs4" />
  <sodipodi:namedview
     id="base"
     pagecolor="#ffffff"
     bordercolor="#666666"
     borderopacity="1.0"
     inkscape:pageopacity="0.0"
     inkscape:pageshadow="2"
     inkscape:zoom="5.6"
     inkscape:cx="45.027539"
     inkscape:cy="41.761865"
     inkscape:document-units="px"
     inkscape:current-layer="layer1"
     showgrid="true"
     showguides="false"
     inkscape:window-width="1366"
     inkscape:window-height="705"
     inkscape:window-x="-8"
     inkscape:window-y="-8"
     inkscape:window-maximized="1"
     units="px">
    <inkscape:grid
       type="xygrid"
       id="grid4136" />
  </sodipodi:namedview>
  <metadata
     id="metadata7">
    <rdf:RDF>
      <cc:Work
         rdf:about="">
        <dc:format>image/svg+xml</dc:format>
        <dc:type
           rdf:resource="http://purl.org/dc/dcmitype/StillImage" />
        <dc:title></dc:title>
      </cc:Work>
    </rdf:RDF>
  </metadata>
  <g
     inkscape:label="Layer 1"
     inkscape:groupmode="layer"
     id="layer1"
     transform="translate(0,-1002.3621)">
    <path
       sodipodi:type="spiral"
       style="fill:none;fill-rule:evenodd;stroke:#000000;stroke-width:1px;stroke-linecap:butt;stroke-linejoin:miter;stroke-opacity:1"
       id="path4142"
       sodipodi:cx="25"
       sodipodi:cy="1027.3621"
       sodipodi:expansion="1"
       sodipodi:revolution="3.9000001"
       sodipodi:radius="25"
       sodipodi:argument="-19.373156"
       sodipodi:t0="0"
       d="m 25,1027.3621 c 0.835021,-0.4821 1.061832,0.8877 0.801283,1.3878 -0.706072,1.3553 -2.613916,1.0924 -3.577004,0.2147 -1.722739,-1.5699 -1.23749,-4.318 0.371871,-5.7661 2.361802,-2.1252 6.047712,-1.3936 7.955292,0.9584 2.542504,3.1349 1.554787,7.7868 -1.545026,10.1445 -3.900798,2.9669 -9.530355,1.7187 -12.333579,-2.1316 -3.395079,-4.6633 -1.884179,-11.2766 2.71818,-14.5228 5.423721,-3.8255 13.024313,-2.0506 16.711867,3.3048 4.257427,6.183 2.217818,14.7732 -3.891335,18.901 -6.941606,4.6903 -16.522781,2.3854 -21.090154,-4.4779 -5.1239013,-7.6996 -2.5533882,-18.2729 5.064489,-23.2793 8.457288,-5.558 20.023516,-2.7216 25.468442,5.6511 5.992494,9.2146 2.889992,21.7744 -6.237643,27.6575 -9.97181,6.4273 -23.52555,3.0586 -29.8467296,-6.8242 -6.8623165,-10.7288 -3.2272117,-25.2769 7.4107976,-32.0358 6.580558,-4.1811 14.955958,-4.8932 22.187658,-2.0208"
       transform="matrix(-0.50250827,0.96373416,-0.96373416,-0.50250827,1025.9272,1521.239)" />
  </g>
</svg>
